<?xml version="1.0" encoding="UTF-8"?><svg id="Layer_1" xmlns="http://www.w3.org/2000/svg" xmlns:xlink="http://www.w3.org/1999/xlink" viewBox="0 0 225 205.6"><defs><style>.cls-1{fill:none;}.cls-2{fill:#114232;fill-rule:evenodd;}.cls-3{clip-path:url(#clippath);}</style><clipPath id="clippath"><rect class="cls-1" width="225" height="205.6"/></clipPath></defs><g class="cls-3"><path class="cls-2" d="M106.59,11.92l14.18,24.56v12.47h-28.36v-12.47l14.18-24.56ZM203.46,56.32H44.55l-7.5-31.07c-1.62-6.7-7.49-11.35-14.39-11.35H6.9C3.09,13.9,0,16.99,0,20.8s3.09,6.9,6.9,6.9h15.76c.52,0,.9.27,1.02.78l26.29,108.9c-10.34,3.58-17.38,13.37-17.38,24.37,0,13.93,11.17,25.35,25,25.77,2.12,10.27,11.21,17.99,22.11,17.99s19.98-7.71,22.11-17.97h39.32c2.13,10.26,11.22,17.97,22.11,17.97,12.47,0,22.58-10.11,22.58-22.58s-10.11-22.58-22.58-22.58c-9.2,0-17.11,5.5-20.63,13.38h-42.28c-3.52-7.89-11.43-13.38-20.63-13.38s-17.1,5.5-20.63,13.38h-.7c-6.58,0-11.98-5.41-11.98-11.98s5.41-11.98,11.98-11.98h106.38c11.55,0,21.48-7.36,24.88-18.38l20.24-65.62c1.78-4.48-1.5-9.45-6.41-9.45ZM163.23,173.73c5.08,0,9.19,4.11,9.19,9.19s-4.11,9.19-9.19,9.19-9.19-4.12-9.19-9.19,4.12-9.19,9.19-9.19ZM79.7,173.73c5.08,0,9.19,4.11,9.19,9.19s-4.12,9.19-9.19,9.19-9.19-4.12-9.19-9.19,4.11-9.19,9.19-9.19ZM84.93,135.97h-21.16l-4.46-18.48h25.62v18.48ZM84.93,110.12h-27.4l-3.52-14.58h30.92v14.58ZM84.93,88.17h-32.7l-4.36-18.05h37.06v18.05ZM116.58,135.97h-24.27v-18.48h24.27v18.48ZM116.58,110.12h-24.27v-14.58h24.27v14.58ZM116.58,88.17h-24.27v-18.05h24.27v18.05ZM148.23,135.97h-24.27v-18.48h24.27v18.48ZM148.23,110.12h-24.27v-14.58h24.27v14.58ZM148.23,88.17h-24.27v-18.05h24.27v18.05ZM176.48,127.34c-1.63,5.29-6.2,8.63-11.73,8.63h-9.15v-18.48h23.91l-3.04,9.84ZM181.79,110.12h-26.19v-14.58h30.68l-4.5,14.58ZM188.56,88.17h-32.96v-18.05h38.53l-5.57,18.05ZM180.7,21.46c-.7-.84-1.47-1.64-2.31-2.38l6.6-11.43c1.17-2.04.47-4.67-1.57-5.84-2.04-1.18-4.67-.47-5.84,1.57l-6.6,11.43c-9.54-3.21-20.33.62-25.56,9.67-2.53,4.38-4.38,12.85-6.93,24.47h42.26c.83-1.03,1.52-1.99,2.04-2.89,4.64-8.05,3.52-17.84-2.09-24.59ZM172.76,27.64c-1.02,1.76-3.27,2.36-5.03,1.34-3.47-2-7.91-.8-9.91,2.66-1.02,1.76-3.27,2.36-5.03,1.34-1.76-1.02-2.36-3.27-1.34-5.03,4.04-7,12.97-9.38,19.96-5.34,1.76,1.02,2.36,3.27,1.34,5.03ZM58.73,8.23h41.48L104.87.15h-46.14v8.08ZM48.23,40.16h36.8v8.78h-34.68l-2.12-8.78ZM95.94,15.61h-39.35l-9.92,17.18h39.35l9.92-17.18ZM187.45,18.13l.06-.1c4.5-1.13,9.36-.46,13.43,2.03.13-.06.25-.12.38-.17,1.31-3.96,1.44-8.07-.1-13.2-.58-1.95.53-4,2.48-4.58,1.95-.58,4,.53,4.58,2.48.83,2.8,1.29,5.39,1.41,7.84l5.12-4.84c1.47-1.39,3.79-1.33,5.18.14s1.33,3.79-.14,5.19l-4.57,4.32c2.2.17,4.52.61,7,1.35,1.95.58,3.06,2.63,2.48,4.58-.58,1.95-2.63,3.06-4.58,2.48-5.13-1.53-9.23-1.4-13.2-.09-.06.13-.11.25-.17.38,3.99,6.54,3.31,15.13-2.04,20.97l-13-3.1c2.69-8.74,1.09-18.3-4.32-25.66ZM117.9,10.02c14.9,5.62,17.29,12.19,14.8,19.12-2.16-3.58-5.8-5-12.13-7.75l7.57,13.12v14.44h2.8c.36-1.62.72-3.25,1.08-4.88,1.52-6.91,3.5-17.19,7.02-23.27,1.68-2.9,3.8-5.42,6.25-7.51-7.38-5.43-17.65-7.44-27.38-3.27Z"/></g></svg>