<?xml version="1.0" standalone="no"?>
<!DOCTYPE svg PUBLIC "-//W3C//DTD SVG 20010904//EN"
 "http://www.w3.org/TR/2001/REC-SVG-20010904/DTD/svg10.dtd">
<svg version="1.0" xmlns="http://www.w3.org/2000/svg"
 width="908.000000pt" height="908.000000pt" viewBox="0 0 908.000000 908.000000"
 preserveAspectRatio="xMidYMid meet">
<metadata>
Created by potrace 1.14, written by Peter Selinger 2001-2017
</metadata>
<g transform="translate(0.000000,908.000000) scale(0.100000,-0.100000)"
fill="#000000" stroke="none">
<path d="M3719 9076 c-2 -2 -25 -7 -52 -10 -26 -4 -60 -11 -75 -17 -15 -6 -28
-10 -29 -10 -2 1 -4 1 -5 0 -2 0 -10 -2 -19 -4 -85 -16 -276 -134 -374 -231
-138 -135 -244 -334 -270 -504 l-7 -45 142 1 c78 1 143 4 146 7 3 2 7 17 10
33 10 53 61 163 107 226 131 183 336 284 557 273 47 -2 94 -6 105 -9 46 -10
151 -50 166 -62 8 -8 19 -14 23 -14 14 0 90 -57 137 -101 65 -63 127 -159 160
-250 16 -43 26 -79 22 -79 -4 0 -2 -5 4 -11 10 -10 161 -15 276 -10 16 1 18 7
14 39 -15 101 -61 219 -131 332 -50 79 -65 99 -138 171 -109 109 -289 217
-408 244 -8 2 -37 9 -65 15 -48 12 -287 25 -296 16z"/>
<path d="M1389 8151 c0 -9 -1 -223 -1 -477 l0 -460 -32 -21 c-17 -11 -65 -42
-106 -68 -41 -26 -91 -58 -110 -70 -131 -86 -212 -135 -220 -135 -6 0 -10 -3
-10 -8 0 -4 -10 -12 -22 -17 l-23 -10 -3 -3443 -2 -3443 2598 2 2599 3 0 362
1 361 -352 -1 c-193 -1 -356 -1 -361 1 -7 2 -10 126 -10 361 l0 357 360 0 360
0 1 -353 c1 -194 5 -356 9 -360 10 -10 706 -9 712 1 3 5 6 170 6 368 0 231 4
356 10 352 5 -3 168 -6 362 -5 l352 0 -2 -167 c-1 -91 2 -173 6 -181 6 -13 36
-15 181 -15 l173 1 0 179 0 180 -174 2 c-101 1 -176 6 -180 11 -5 8 -7 691 -2
712 1 3 163 4 361 4 l360 -2 0 362 0 362 -360 -1 c-234 0 -360 3 -361 10 -1 5
-2 168 -3 360 l-1 350 -370 2 c-203 2 -449 3 -547 3 l-176 0 6 25 c4 13 5 61
2 106 -3 44 -2 83 3 86 4 2 3 12 -3 22 -5 10 -7 21 -4 24 9 9 10 88 1 94 -5 3
-81 5 -170 5 -89 0 -169 1 -177 4 -13 3 -15 31 -14 176 1 159 3 172 20 178 10
3 173 6 362 5 l342 -1 1 31 c0 16 1 179 1 360 l1 330 -544 0 -543 0 0 -180 0
-180 181 1 180 0 0 -180 1 -181 -362 0 -362 0 1 722 0 723 25 0 c45 1 634 1
665 1 l31 -1 -1 -180 0 -180 181 0 182 0 0 176 c0 96 2 177 5 180 2 3 81 5
176 5 111 0 173 4 177 11 4 6 7 249 7 541 l0 530 -29 21 c-15 12 -132 89 -259
171 l-230 151 0 474 0 475 -2437 1 c-2202 0 -2438 -1 -2439 -15z m4537 -234
c3 -3 -92 -102 -210 -220 -198 -198 -239 -247 -203 -247 7 0 23 -9 35 -20 12
-11 23 -20 26 -20 5 0 498 -329 521 -347 6 -5 42 -28 80 -53 39 -24 72 -47 75
-50 3 -3 29 -21 58 -39 28 -18 52 -36 52 -40 0 -7 -5068 -7 -5075 1 -5 4 36
32 215 147 30 20 57 39 58 43 2 5 8 8 12 8 8 0 95 53 150 91 14 9 50 33 124
81 11 7 67 43 125 80 58 37 111 72 118 78 7 5 14 10 17 10 3 0 21 11 40 23
l34 24 -219 220 c-120 121 -221 218 -224 215 -3 -3 -5 0 -5 6 0 6 17 12 38 14
62 5 4153 0 4158 -5z m132 -4646 c-1 -192 2 -354 6 -360 9 -14 35 -13 -379
-15 l-350 -1 0 363 -1 362 362 0 362 -1 0 -348z m-1483 -1100 l40 -1 -5 -361
-5 -361 -353 0 c-195 0 -356 3 -360 6 -3 4 -6 167 -6 364 l-1 357 325 -2 c179
-1 343 -2 365 -2z"/>
<path d="M3729 7776 c-2 -2 -20 -5 -39 -7 -19 -2 -39 -5 -45 -8 -5 -3 -16 -6
-25 -7 -80 -9 -223 -71 -330 -144 -118 -80 -248 -231 -311 -360 -24 -50 -65
-159 -74 -195 -15 -66 -16 -88 -7 -94 11 -6 270 -6 276 0 1 2 13 36 26 76 12
40 39 100 59 135 39 66 181 218 205 218 8 0 21 6 28 13 11 11 81 48 98 52 3 1
13 5 23 8 65 25 116 32 228 31 217 -2 410 -112 534 -304 44 -68 99 -205 89
-221 -3 -5 1 -9 8 -10 18 -1 260 -1 277 0 26 2 -10 147 -66 269 -42 90 -119
198 -195 273 -67 67 -176 149 -197 149 -6 0 -11 3 -11 8 0 4 -12 13 -27 19
-80 35 -155 63 -184 68 -18 3 -35 8 -39 10 -22 14 -289 32 -301 21z"/>
<path d="M6889 5792 l-106 -3 0 -359 -1 -360 27 -1 c33 -1 661 -1 681 0 14 1
16 45 16 361 l0 360 -46 0 c-360 4 -482 5 -571 2z"/>
<path d="M6783 544 l0 -181 181 0 181 1 -1 175 c-1 97 -2 178 -3 181 0 3 -81
5 -180 5 l-179 1 1 -182z"/>
</g>
</svg>
