<?xml version="1.0" encoding="UTF-8"?>
<svg id="Layer_2" data-name="Layer 2" xmlns="http://www.w3.org/2000/svg" viewBox="0 0 737 907.25">
  <defs>
    <style>
      .cls-1, .cls-2, .cls-3, .cls-4 {
        stroke-width: 0px;
      }

      .cls-2 {
        fill: #114232;
      }

      .cls-3 {
        fill: #87a922;
      }

      .cls-4 {
        fill: #fcdc2a;
      }
    </style>
  </defs>
  <g id="Logo_Green" data-name="Logo Green">
    <rect class="cls-2" x="227.34" y="833.58" width="78.03" height="73.67"/>
    <rect class="cls-2" x="228.52" y="616.53" width="74.48" height="77.42"/>
    <rect class="cls-2" x="301.55" y="507.88" width="39.81" height="38.37"/>
    <rect class="cls-2" x="370.75" y="473.25" width="41.25" height="37"/>
    <rect class="cls-2" x="301.55" y="401.25" width="73.45" height="73.45"/>
    <rect class="cls-2" x="373.46" y="326.35" width="74.54" height="74.54"/>
    <rect class="cls-2" x="447.48" y="256.25" width="74.16" height="72"/>
    <rect class="cls-2" x="447" y="473.25" width="73" height="73"/>
    <rect class="cls-2" x="376" y="688.1" width="72" height="76.06"/>
    <rect class="cls-2" x="446.4" y="618.25" width="73.6" height="72.31"/>
    <rect class="cls-4" x="448" y="690.25" width="72" height="72"/>
    <rect class="cls-2" x="520" y="688.1" width="72" height="74.15"/>
    <rect class="cls-4" x="448" y="219.24" width="36.05" height="37.05"/>
    <rect class="cls-4" x="520" y="256.25" width="36" height="36"/>
    <rect class="cls-4" x="231" y="328.25" width="72" height="73"/>
    <rect class="cls-4" x="375" y="401.25" width="73" height="72"/>
    <rect class="cls-4" x="520" y="401.25" width="72" height="72"/>
    <rect class="cls-4" x="267" y="473.25" width="36" height="36"/>
    <rect class="cls-4" x="158" y="473.25" width="72" height="72"/>
    <rect class="cls-4" x="376" y="546.25" width="72" height="72"/>
    <rect class="cls-4" x="592" y="618.25" width="73" height="72"/>
    <rect class="cls-4" x="520" y="762.25" width="72" height="73"/>
    <rect class="cls-4" x="665" y="762.25" width="36" height="37"/>
    <rect class="cls-4" x="303" y="762.25" width="73" height="73"/>
    <rect class="cls-4" x="158" y="690.25" width="72" height="72"/>
    <rect class="cls-3" x="303" y="219.25" width="37" height="37"/>
    <rect class="cls-3" x="122" y="473.25" width="36" height="36"/>
    <rect class="cls-3" x="520" y="546.25" width="72" height="72"/>
    <rect class="cls-3" x="303" y="618.25" width="73" height="72"/>
    <rect class="cls-3" x="376" y="835.25" width="72" height="72"/>
    <rect class="cls-3" x="592" y="690.25" width="73" height="72"/>
    <rect class="cls-3" x="267" y="292.25" width="36" height="36"/>
    <rect class="cls-2" x="85.64" y="617.77" width="36.77" height="37.25"/>
    <rect class="cls-2" x="665" y="618.25" width="72" height="72"/>
    <rect class="cls-2" x="448" y="835.25" width="72" height="72"/>
    <rect class="cls-2" x="593" y="835.25" width="36" height="36"/>
    <rect class="cls-2" x="592" y="546.25" width="73" height="72"/>
    <rect class="cls-2" x="593" y="328.25" width="72" height="72"/>
    <path class="cls-1" d="M390.15,211.25c-7.23-47.76-49.15-82.65-96.23-81.2-44.99,1.38-83.53,35.61-90.39,81.2h28.02c6.04-30.61,32.37-53.06,62.82-54.09,32.05-1.08,60.93,21.82,67.34,54.09h28.44Z"/>
    <path class="cls-1" d="M390.15,81.25C382.92,33.49,340.99-1.4,293.91.04c-44.99,1.38-83.53,35.61-90.39,81.2h28.02c6.04-30.61,32.37-53.06,62.82-54.09,32.05-1.08,60.93,21.82,67.34,54.09h28.44Z"/>
    <rect class="cls-1" x="484" y="401.25" width="36" height="36"/>
    <rect class="cls-1" x="520" y="509.25" width="36" height="37"/>
    <rect class="cls-1" x="376" y="762.25" width="72" height="73"/>
    <rect class="cls-1" x="520" y="618.25" width="72" height="72"/>
    <rect class="cls-1" x="303" y="835.25" width="73" height="72"/>
    <path class="cls-1" d="M541,186.23v-94.98H53v95.44L0,220.09v687.16h230v-72h73v-73h-145v-72h72v-72h146v-72h72v-73h-36v36h-37v-36h-72v36h36v36h-36v-36h-36v-36h36v-72h-72v-73h36v-36h36v109h72v-73h73v-109h-108v37h-37v-37H41.8l91.14-58.71-45.29-45.29h419.91l-45.01,45.01,88.06,58.99h-66.62v37h72v36h-36v72h36v-36h37v-108.4l-52-33.62ZM122,473.25h108v72h-72v-36h-36v-36ZM86,618.25h36v36h-36v-36Z"/>
    <rect class="cls-1" x="230" y="690.25" width="73" height="72.92"/>
    <rect class="cls-1" x="376" y="618.25" width="72" height="72"/>
  </g>
</svg>